<svg xmlns="http://www.w3.org/2000/svg"  viewBox="0 0 333333 333333" shape-rendering="geometricPrecision" text-rendering="geometricPrecision" image-rendering="optimizeQuality" fill-rule="evenodd" clip-rule="evenodd"><defs><linearGradient id="a" gradientUnits="userSpaceOnUse" x1="331909" y1="-1400.79" x2="1424.02" y2="334734"><stop offset="0" stop-color="#5dd069"/><stop offset="1" stop-color="#2bb641"/></linearGradient></defs><path d="M166667 0c46023 0 87690 18655 117851 48816s48816 71828 48816 117851-18655 87690-48816 117851-71828 48816-117851 48816-87690-18655-117851-48816S0 212690 0 166667 18655 78977 48816 48816 120644 0 166667 0zm56013 113225c-14098-14129-32851-21899-52824-21899-41144-1-74631 33490-74631 74664 0 13152 3445 26017 9973 37320l-10598 38699 39583-10389c10916 5947 23197 9098 35662 9098h30c41147 0 74662-33490 74662-74662 0-19956-7770-38698-21868-52821l11-10zm-52802 114895c-11152 0-22073-3006-31602-8658l-2272-1356-23490 6152 6273-22895-1469-2352c-6245-9863-9505-21276-9505-33017 0-34224 27840-62074 62100-62074 16566 0 32173 6478 43881 18185 11713 11744 18155 27314 18155 43909-28 34248-27867 62098-62074 62098l5 9zm34022-46496c-1854-944-11038-5443-12743-6065s-2947-944-4211 943c-1235 1854-4824 6066-5916 7324-1094 1237-2174 1414-4029 470-1854-944-7890-2911-15008-9270-5537-4942-9293-11063-10385-12917-1093-1854-122-2883 828-3794 858-830 1857-2174 2797-3269 944-1093 1237-1856 1857-3118 623-1237 319-2330-150-3268-470-940-4211-10124-5736-13865-1498-3656-3060-3146-4209-3210-1093-56-2330-56-3561-56s-3268 467-4973 2327c-1704 1854-6535 6387-6535 15568 0 9184 6680 18041 7618 19307 943 1234 13158 20097 31869 28169 4447 1912 7919 3060 10626 3949 4474 1411 8533 1207 11744 733 3589-529 11038-4506 12601-8863 1561-4361 1561-8092 1093-8863-443-831-1677-1289-3561-2244l-14 11h-1zm69395-121585c-27287-27287-64987-44165-106628-44165-41642 0-79341 16878-106628 44165s-44165 64987-44165 106628c0 41642 16878 79341 44165 106628s64987 44165 106628 44165c41642 0 79341-16878 106628-44165s44165-64987 44165-106628c0-41642-16878-79341-44165-106628z" fill="url(#a)" fill-rule="nonzero"/></svg>